<?xml version="1.0" encoding="utf-8"?>
<!-- Generator: Adobe Illustrator 18.1.0, SVG Export Plug-In . SVG Version: 6.00 Build 0)  -->
<svg version="1.1" id="Layer_1" xmlns="http://www.w3.org/2000/svg" xmlns:xlink="http://www.w3.org/1999/xlink" x="0px" y="0px"
	 viewBox="0 0 56 13" enable-background="new 0 0 56 13" xml:space="preserve">
<g>
	<path fill="#A7A9AC" d="M36.6,5.7c-0.8,0-1.1,0.7-1.1,1.2h2.1C37.6,6.4,37.4,5.7,36.6,5.7z"/>
	<path fill="#A7A9AC" d="M17.1,5.7c-0.8,0-1.1,0.7-1.1,1.2h2.1C18.2,6.4,18,5.7,17.1,5.7z"/>
	<path fill="#A7A9AC" d="M31.1,5.8c-0.5,0-0.9,0.4-1.1,0.9c0,0.1,0,0.2,0,0.3v0.8c0,0.1,0,0.2,0,0.3C30.2,8.6,30.6,9,31.1,9
		c0.8,0,1.2-0.6,1.2-1.6C32.4,6.5,32,5.8,31.1,5.8z"/>
	<path fill="#A7A9AC" d="M42,5.8c-0.8,0-1.2,0.7-1.2,1.6c0,0.9,0.4,1.5,1.2,1.5c0.5,0,0.9-0.3,1.1-0.9c0-0.1,0-0.2,0-0.4V7
		c0-0.1,0-0.2,0-0.3C42.9,6.2,42.5,5.8,42,5.8z"/>
	<path fill="#A7A9AC" d="M54.2,0.3H1.8C1,0.3,0.4,0.9,0.4,1.7v9.6c0,0.8,0.6,1.4,1.4,1.4h52.4c0.8,0,1.4-0.6,1.4-1.4V1.7
		C55.6,0.9,55,0.3,54.2,0.3z M8.4,5.4L4.7,7.2v0L8.4,9v0.9L3.7,7.5V6.8l4.7-2.3V5.4z M10,10.2H9.1L11.6,3h0.9L10,10.2z M19.3,7.8H16
		C16,8.6,16.7,9,17.5,9c0.6,0,1-0.1,1.3-0.2L19,9.6c-0.4,0.2-1,0.3-1.7,0.3c-1.6,0-2.5-1-2.5-2.5c0-1.3,0.8-2.6,2.4-2.6
		c1.6,0,2.1,1.3,2.1,2.4C19.3,7.5,19.3,7.6,19.3,7.8z M27.5,9.8h-1.2V7.2c0-0.8-0.3-1.3-0.9-1.3c-0.4,0-0.7,0.3-0.9,0.6
		c0,0.1-0.1,0.3-0.1,0.4v2.9h-1.2V7c0-0.7-0.3-1.2-0.8-1.2c-0.5,0-0.8,0.4-0.9,0.7c0,0.1-0.1,0.3-0.1,0.4v2.9h-1.2V6.4
		c0-0.6,0-1,0-1.4h1.1l0,0.7h0c0.2-0.4,0.7-0.8,1.5-0.8c0.6,0,1.1,0.4,1.3,0.9h0c0.2-0.3,0.4-0.5,0.6-0.6c0.3-0.2,0.6-0.3,1-0.3
		c0.8,0,1.6,0.5,1.6,2.1V9.8z M31.4,10c-0.6,0-1.2-0.2-1.5-0.8h0l-0.1,0.7h-1c0-0.3,0-0.9,0-1.4V2.7H30v2.9h0
		c0.3-0.5,0.8-0.8,1.6-0.8c1.2,0,2,1,2,2.5C33.6,9.1,32.5,10,31.4,10z M38.8,7.8h-3.3C35.5,8.6,36.2,9,37,9c0.6,0,1-0.1,1.3-0.2
		l0.2,0.8c-0.4,0.2-1,0.3-1.7,0.3c-1.6,0-2.5-1-2.5-2.5c0-1.3,0.8-2.6,2.4-2.6c1.6,0,2.1,1.3,2.1,2.4C38.8,7.5,38.8,7.6,38.8,7.8z
		 M43.2,9.8l-0.1-0.8h0c-0.3,0.5-0.9,0.9-1.6,0.9c-1.2,0-2.1-1-2.1-2.5c0-1.6,1-2.6,2.2-2.6c0.7,0,1.1,0.3,1.4,0.6h0V2.7h1.2v5.7
		c0,0.5,0,1,0,1.4H43.2z M52.4,7.6l-4.7,2.3V9l3.8-1.8v0l-3.8-1.8V4.5l4.7,2.3V7.6z"/>
</g>
</svg>
