<?xml version="1.0" encoding="utf-8"?>
<!-- Generator: Adobe Illustrator 18.1.0, SVG Export Plug-In . SVG Version: 6.00 Build 0)  -->
<svg version="1.1" id="Layer_1" xmlns="http://www.w3.org/2000/svg" xmlns:xlink="http://www.w3.org/1999/xlink" x="0px" y="0px"
	 viewBox="166.7 0 386.7 386.7" enable-background="new 166.7 0 386.7 386.7" xml:space="preserve">
<path fill="#3A579B" d="M509.7,0H210.3c-24.9,0-43.7,18.7-43.7,43.7V343c0,24.9,18.7,43.7,43.7,43.7h299.3
	c24.9,0,43.7-18.7,43.7-43.7V43.7C553.3,18.7,534.6,0,509.7,0z M422.4,208.9h-46.8v112.3h-46.8V208.9h-34.3v-46.8h37.4v-21.8
	c0-34.3,24.9-59.2,56.1-59.2h37.4v46.8h-40.5c-3.1-3.1-9.4,3.1-9.4,12.5v24.9h49.9L422.4,208.9z"/>
</svg>
