<?xml version="1.0" encoding="utf-8"?>
<!-- Generator: Adobe Illustrator 18.1.0, SVG Export Plug-In . SVG Version: 6.00 Build 0)  -->
<svg version="1.1" id="Layer_1" xmlns="http://www.w3.org/2000/svg" xmlns:xlink="http://www.w3.org/1999/xlink" x="0px" y="0px"
	 viewBox="0 0 612 792" enable-background="new 0 0 612 792" xml:space="preserve">
<g>
	<path fill-rule="evenodd" clip-rule="evenodd" d="M324.3,456.6v2.1v2h2H347h2v-2v-2.1v-3.7v-5.1V353v-2h-2h-20.6h-2v2v94.8v5.1
		V456.6L324.3,456.6z M434.4,426.7c0-1.3,0-2.6-0.1-4l-0.2-1.9h0l-0.1-0.7c-0.2-1.4-0.4-2.8-0.8-4.2c-0.3-1.4-0.7-2.7-1.2-3.9
		c-0.6-1.7-1.3-3.2-2.2-4.7c-0.8-1.5-1.8-2.9-2.9-4.3c-1.1-1.3-2.2-2.6-3.5-3.7c-1.3-1.2-2.7-2.2-4.2-3.2c-1.5-1-3.1-1.9-4.8-2.7
		c-1.7-0.8-3.5-1.6-5.4-2.2l-0.3-0.1h0l-0.1,0l-11.1-3.7c-0.9-0.3-1.7-0.6-2.5-1c-0.8-0.3-1.5-0.7-2.1-1.1c-0.6-0.3-1.1-0.7-1.6-1.1
		c-0.5-0.4-0.9-0.8-1.3-1.2c-1.5-1.8-1.9-3.9-1.6-6c0.1-1.1,0.5-2.1,1-3l0,0c0.5-0.9,1.2-1.8,2.1-2.5c1.8-1.5,4.4-2.4,7.3-2l0,0
		c0.3,0,0.6,0.1,0.9,0.2c0.3,0.1,0.6,0.2,0.9,0.2l0.6,0.2l0,0c1,0.4,1.9,0.9,2.6,1.5v0c0.8,0.6,1.4,1.4,1.9,2.2
		c0.6,1,1.1,2.2,1.4,3.4c0.3,1.3,0.5,2.8,0.5,4.3v2h2h1.8h14h3.7h2v-2v-3.7v-3l0-0.1v0v-0.2l0,0v0c-0.1-1.1-0.2-2.1-0.4-3.1l0,0
		c-0.2-1-0.4-2-0.7-3v0c-0.3-1-0.6-2-1-2.9c-0.4-1-0.9-1.9-1.4-2.8c-0.5-0.9-1-1.8-1.6-2.7c-0.6-0.9-1.2-1.7-1.9-2.5
		c-0.7-0.8-1.4-1.6-2.2-2.3c-0.8-0.8-1.6-1.5-2.5-2.2c-0.9-0.7-1.8-1.4-2.6-1.9c-0.9-0.6-1.8-1.1-2.7-1.7c-0.9-0.5-1.8-1-2.8-1.4
		c-0.9-0.4-1.9-0.8-2.8-1.1l0,0l-2.1-0.7l0,0.1l-0.8-0.2c-0.5-0.1-1-0.2-1.4-0.3h0c-0.5-0.1-1-0.2-1.4-0.2c-1-0.1-2-0.2-3-0.3
		c-1,0-2,0-3.1,0l-1.9,0.1v0l-0.7,0.1c-0.7,0.1-1.4,0.2-2,0.3c-0.7,0.1-1.3,0.2-2,0.4c-1.1,0.2-2.1,0.5-3.2,0.9
		c-1.1,0.3-2.1,0.7-3.1,1.2c-1,0.4-2,0.9-2.9,1.4v0c-1,0.5-1.9,1.1-2.8,1.7c-0.9,0.6-1.8,1.3-2.6,2c-0.9,0.7-1.7,1.5-2.5,2.3
		c-0.8,0.8-1.6,1.7-2.3,2.5c-0.7,0.9-1.4,1.8-2,2.7l0,0c-0.6,0.9-1.2,1.8-1.7,2.8l0,0c-0.5,1-1,2-1.4,3l0,0c-0.4,1-0.7,2-1,3.1
		c-0.3,1.1-0.5,2.2-0.7,3.3c-0.2,1.1-0.3,2.2-0.3,3.3c-0.1,1.1-0.1,2.3,0,3.4c0.1,1.9,0.3,3.7,0.6,5.4c0.3,1.7,0.7,3.4,1.2,5
		c0.5,1.4,1,2.7,1.6,4c0.6,1.2,1.3,2.5,2.1,3.6l0.2,0.3v0l0.6,0.8c1,1.3,2.1,2.5,3.3,3.6c1.2,1.1,2.5,2.2,3.9,3.1
		c0.9,0.6,1.9,1.2,2.9,1.7c1,0.5,2,1,3.1,1.4l1,0.4l0,0.1l2.7,0.9l11.7,3.7l0.9,0.3h0c0.8,0.3,1.5,0.6,2.2,0.9c0.7,0.3,1.3,0.7,2,1
		l0,0c0.7,0.4,1.3,0.8,1.8,1.3h0c0.5,0.5,1,0.9,1.4,1.5c1.2,1.5,2,3.2,2.3,4.9l0,0c0.4,2,0.2,4-0.5,6l0,0c-0.7,1.9-1.9,3.7-3.5,5
		c-1.4,1.2-3.2,2-5.3,2.4l0,0c-0.7,0.1-1.4,0.2-2,0.2h0c-3.8,0.1-7-1.5-9.5-4c-2.4-2.5-4.1-6-4.8-9.7l0,0c-0.2-1-0.3-2-0.3-3.1l0,0
		v-0.4v0l0-2h-2h-1.8h-13.8h-3.7h-2v2v3.6c0,1.2,0,2.4,0.1,3.6c0.1,1.2,0.3,2.4,0.5,3.6c0.2,1.2,0.5,2.3,0.8,3.5
		c0.3,0.9,0.6,1.9,0.9,2.8l0,0l0.2,0.5c0.4,1.1,0.9,2.2,1.4,3.2c0.5,1,1.1,2,1.7,3l0,0c0.6,1,1.3,2,2,2.9c0.7,1,1.5,1.9,2.3,2.8
		c0.9,0.9,1.7,1.8,2.6,2.6c0.8,0.7,1.6,1.4,2.5,2.1l0,0l0.3,0.2c0.9,0.7,1.9,1.4,2.9,2c1,0.6,2,1.2,3,1.7l0.4,0.2
		c0.9,0.4,1.9,0.8,2.8,1.2c1.1,0.4,2.2,0.7,3.4,1l0,0c1.1,0.3,2.3,0.5,3.5,0.7c1.2,0.2,2.4,0.3,3.6,0.4l0.1,0l0,0h0
		c1.3,0.1,2.6,0.1,3.9,0l0,0c1.2,0,2.5-0.2,3.8-0.3l0,0c1.2-0.2,2.5-0.4,3.7-0.7c1.2-0.3,2.5-0.7,3.7-1.2c1.2-0.4,2.4-0.9,3.5-1.5
		c1.2-0.6,2.3-1.2,3.4-1.9c1.1-0.7,2.2-1.5,3.2-2.3c1.1-0.8,2.1-1.7,3.1-2.7c1-1,2-2,2.9-3c0.9-1,1.7-2,2.5-3.1
		c0.8-1.1,1.5-2.3,2.2-3.5l0.4-0.8l0.1,0.1l1-2.4c0.5-1.2,0.9-2.4,1.2-3.6c0.3-1.2,0.6-2.5,0.8-3.7
		C434.3,429.2,434.4,427.9,434.4,426.7L434.4,426.7z M298.4,460.1c2.9,0.4,6.1,0.6,9.5,0.6h3.7h2v-2V455v-11v-3.7v-2h-2h-3.7
		c-1.6,0-3-0.1-4.4-0.3c-1.4-0.2-2.6-0.4-3.8-0.8l-0.6-0.2v0c-0.8-0.3-1.6-0.6-2.3-1l0,0c-0.9-0.5-1.7-1.1-2.3-1.7
		c-0.7-0.6-1.2-1.4-1.7-2.2c-0.5-0.8-0.9-1.7-1.2-2.8c-0.3-1.1-0.6-2.2-0.8-3.5c-0.2-1.3-0.3-2.6-0.3-4.1v-46.1v-0.8h0.8h16.6h3.7h2
		v-2v-3.6v-12.5V353v-2h-2h-3.7h-9.7h-6.9h-0.8v-0.8v-22.3h-24.7V424c0,3,0.2,5.8,0.7,8.5c0.5,2.6,1.2,5.1,2.1,7.4
		c0.9,2.3,2.1,4.5,3.5,6.4c1.4,2,3,3.7,4.9,5.3l0.3,0.3l0,0c1.7,1.4,3.6,2.7,5.7,3.8l0,0c2.2,1.2,4.6,2.1,7.2,2.9
		C292.7,459.2,295.5,459.7,298.4,460.1L298.4,460.1z M486.6,305.4c-3.4,0-6.5,0.2-9.5,0.6c-2.9,0.4-5.7,0.9-8.3,1.7
		c-2.6,0.8-5,1.7-7.2,2.9l0,0c-2.1,1.1-4,2.3-5.7,3.8v0l-0.3,0.3c-1.9,1.6-3.5,3.4-4.9,5.3c-1.4,1.9-2.6,4.1-3.5,6.4v0
		c-0.9,2.3-1.6,4.7-2.1,7.4c-0.5,2.6-0.7,5.5-0.7,8.5v118.5h24.7v-85.1v-0.8h0.8h6.9h9.8h3.6h2v-2v-3.6v-12.5V353v-2h-2h-3.6H470
		h-0.8v-0.8v-5.8c0-1.5,0.1-2.9,0.3-4.1c0.2-1.3,0.5-2.5,0.8-3.5c0.3-1,0.7-1.9,1.2-2.7c0.5-0.8,1.1-1.6,1.7-2.2
		c0.7-0.6,1.4-1.2,2.3-1.7l0,0c0.5-0.3,1.1-0.5,1.7-0.8l0,0l1.3-0.4c1.1-0.3,2.4-0.6,3.8-0.8v0c1.4-0.2,2.9-0.3,4.4-0.3h3.6h2v-2
		v-3.6v-11v-3.7v-2h-2H486.6L486.6,305.4z M81.5,426.7c0-1.3,0-2.6-0.1-4l-0.1-1.9h0l-0.1-0.7c-0.2-1.4-0.4-2.8-0.8-4.2
		c-0.3-1.4-0.7-2.7-1.2-3.9c-0.6-1.7-1.3-3.2-2.2-4.7c-0.8-1.5-1.8-2.9-2.9-4.3c-1.1-1.3-2.2-2.6-3.5-3.7c-1.3-1.2-2.7-2.2-4.2-3.2
		c-1.5-1-3.1-1.9-4.8-2.7c-1.7-0.8-3.5-1.6-5.4-2.2l-0.3-0.1h0l-0.1,0l-11.1-3.7c-0.9-0.3-1.7-0.6-2.5-1c-0.8-0.3-1.5-0.7-2.1-1.1
		c-0.6-0.3-1.1-0.7-1.6-1.1c-0.5-0.4-0.9-0.8-1.3-1.2h0c-1.5-1.8-2-3.9-1.6-6c0.2-1.1,0.5-2.1,1-3l0,0c0.5-0.9,1.2-1.8,2.1-2.5
		c1.8-1.5,4.4-2.4,7.3-2h0c0.3,0,0.6,0.1,0.9,0.2c0.3,0.1,0.6,0.2,0.9,0.2l0.6,0.2l0.1,0c1,0.4,1.9,0.9,2.6,1.5v0
		c0.8,0.6,1.4,1.4,1.9,2.2c0.6,1,1.1,2.2,1.4,3.4c0.3,1.3,0.5,2.8,0.5,4.3v2h2h1.8h14h3.7h2v-2v-3.7v-3l0-0.1v0l0-0.2v0v0
		c-0.1-1.1-0.2-2.1-0.4-3.1l0,0c-0.2-1-0.4-2-0.7-3v0c-0.3-1-0.6-2-1-2.9c-0.4-1-0.9-1.9-1.4-2.8c-0.5-0.9-1-1.8-1.6-2.7
		c-0.6-0.9-1.2-1.7-1.9-2.5c-0.7-0.8-1.4-1.6-2.2-2.3c-0.8-0.8-1.6-1.5-2.5-2.2c-0.9-0.7-1.8-1.4-2.6-1.9c-0.9-0.6-1.8-1.1-2.7-1.7
		c-0.9-0.5-1.8-1-2.8-1.4c-0.9-0.4-1.9-0.8-2.8-1.1l-2.2-0.7l0,0.1l-0.8-0.2c-0.5-0.1-1-0.2-1.4-0.3h0c-0.5-0.1-1-0.2-1.5-0.2
		c-1-0.1-2-0.2-3-0.3c-1,0-2,0-3.1,0l-1.9,0.1v0l-0.7,0.1c-0.7,0.1-1.4,0.2-2,0.3c-0.7,0.1-1.3,0.2-2,0.4c-1.1,0.2-2.1,0.5-3.2,0.9
		c-1,0.3-2.1,0.7-3.1,1.2c-1,0.4-2,0.9-2.9,1.4v0c-1,0.5-1.9,1.1-2.8,1.7c-0.9,0.6-1.8,1.3-2.6,2c-0.9,0.7-1.7,1.5-2.5,2.3
		c-0.8,0.8-1.6,1.7-2.4,2.6c-0.7,0.9-1.4,1.8-2,2.7h0c-0.6,0.9-1.2,1.8-1.7,2.8l0,0c-0.5,1-1,2-1.4,3l0,0c-0.4,1-0.7,2-1,3.1
		c-0.3,1.1-0.5,2.2-0.7,3.3v0c-0.2,1.1-0.3,2.2-0.4,3.3c-0.1,1.1-0.1,2.3,0,3.4c0.1,1.9,0.3,3.7,0.6,5.4c0.3,1.7,0.7,3.4,1.3,5v0
		c0.5,1.4,1,2.7,1.6,4c0.6,1.2,1.3,2.5,2.1,3.6l0.2,0.3l0,0l0.6,0.8c1,1.3,2.1,2.5,3.3,3.6c1.2,1.1,2.5,2.2,3.9,3.1
		c0.9,0.6,1.9,1.2,2.9,1.7c1,0.5,2,1,3.1,1.4l1,0.4l-0.1,0.1l2.7,0.9l11.7,3.7l0.9,0.3h0c0.8,0.3,1.5,0.6,2.2,0.9
		c0.7,0.3,1.3,0.7,2,1l0,0c0.7,0.4,1.3,0.8,1.8,1.3h0c0.5,0.5,1,0.9,1.5,1.5c1.2,1.5,2,3.2,2.3,4.9l0,0c0.4,2,0.2,4-0.5,6l0,0
		c-0.7,1.9-1.9,3.7-3.5,5c-1.4,1.2-3.2,2-5.3,2.4l0,0c-0.7,0.1-1.4,0.2-2,0.2h0c-3.8,0.1-7-1.5-9.5-4c-2.4-2.5-4.1-6-4.8-9.7h0
		c-0.2-1-0.3-2-0.3-3.1l0,0l0-0.4v0l0-2h-2h-1.8H12.5H8.8h-2v2v3.6c0,1.2,0.1,2.4,0.2,3.6c0.1,1.2,0.3,2.4,0.5,3.6
		c0.2,1.2,0.5,2.3,0.8,3.5c0.3,0.9,0.6,1.9,0.9,2.8l0,0l0.2,0.5c0.4,1.1,0.9,2.2,1.4,3.2c0.5,1,1.1,2,1.7,3c0.6,1,1.3,2,2,2.9
		c0.7,1,1.5,1.9,2.3,2.8c0.8,0.9,1.7,1.8,2.6,2.6c0.8,0.7,1.6,1.4,2.5,2.1h0l0.2,0.2c0.9,0.7,1.9,1.4,2.9,2c1,0.6,2,1.2,3,1.7
		l0.5,0.2c0.9,0.4,1.8,0.8,2.7,1.1c1.1,0.4,2.2,0.7,3.4,1l0,0c1.1,0.3,2.3,0.5,3.5,0.7c1.2,0.2,2.4,0.3,3.6,0.4l0.1,0h0h0.1
		c1.3,0.1,2.6,0.1,3.9,0h0c1.3,0,2.5-0.2,3.8-0.3h0c1.2-0.2,2.5-0.4,3.7-0.7c1.2-0.3,2.5-0.7,3.7-1.2c1.2-0.4,2.4-0.9,3.5-1.5
		c1.1-0.6,2.3-1.2,3.4-1.9c1.1-0.7,2.2-1.5,3.2-2.3c1.1-0.8,2.1-1.7,3.1-2.7c1-1,2-2,2.9-3c0.9-1,1.7-2,2.4-3.1
		c0.8-1.1,1.5-2.3,2.2-3.5l0.5-0.8l0.1,0.1l1-2.4c0.5-1.2,0.9-2.4,1.2-3.6l0,0c0.3-1.2,0.6-2.5,0.8-3.7
		C81.3,429.2,81.4,427.9,81.5,426.7L81.5,426.7z M122.9,460.1c2.9,0.4,6.1,0.6,9.5,0.6h3.7h2v-2V455v-11v-3.7v-2h-2h-3.7
		c-1.6,0-3-0.1-4.4-0.3c-1.4-0.2-2.6-0.4-3.8-0.8l-0.6-0.2v0c-0.8-0.3-1.6-0.6-2.3-1h0c-0.9-0.5-1.7-1.1-2.3-1.7
		c-0.7-0.6-1.2-1.4-1.7-2.2c-0.5-0.8-0.9-1.7-1.2-2.7h0c-0.4-1.1-0.6-2.3-0.8-3.5c-0.2-1.3-0.3-2.7-0.3-4.1v-46.1v-0.8h0.8h16.6h3.7
		h2v-2v-3.6v-12.5V353v-2h-2h-3.7h-9.7h-6.9h-0.8v-0.8v-22.3H90.3V424c0,3,0.2,5.8,0.7,8.5c0.5,2.6,1.2,5.1,2.1,7.4
		c0.9,2.3,2.1,4.5,3.5,6.4c1.4,2,3,3.7,4.9,5.3l0.3,0.3l0,0c1.7,1.4,3.6,2.7,5.7,3.8l0,0c2.2,1.2,4.6,2.1,7.2,2.9
		C117.2,459.2,120,459.7,122.9,460.1L122.9,460.1z M210.4,346c-3.7-0.8-7.5-1.2-11.4-1.2c-7.7,0-15.1,1.5-21.8,4.3
		c-7,2.9-13.3,7.1-18.5,12.4c-5.3,5.3-9.5,11.5-12.4,18.5c-2.8,6.7-4.3,14.1-4.3,21.8c0,7.7,1.5,15.1,4.3,21.8
		c2.9,7,7.1,13.3,12.4,18.5h0c5.3,5.3,11.5,9.5,18.5,12.4h0c6.7,2.8,14.1,4.3,21.8,4.3c2.6,0,5.2-0.2,7.7-0.5
		c2.6-0.3,5.1-0.9,7.6-1.5c2.3-0.6,4.5-1.4,6.7-2.3c2.2-0.9,4.3-2,6.4-3.1l0.3-0.2l0.3,0.1l24.6,6.5l3.3,0.9l-0.9-3.3l-6.5-24.6
		l-0.1-0.3l0.2-0.3c1.2-2,2.2-4.2,3.1-6.4c0.9-2.2,1.7-4.4,2.3-6.7c0.7-2.4,1.2-5,1.6-7.5c0.3-2.5,0.5-5.1,0.5-7.7
		c0-2.2-0.1-4.3-0.4-6.4c-0.2-2.1-0.6-4.2-1.1-6.3c-0.5-2.1-1.1-4.1-1.7-6.1c-0.7-2-1.5-4-2.4-5.9v0l-1.4-2.9l-2,2.5l-14.3,17.7
		l-0.6,0.7l0.2,0.9v0c0.1,0.4,0.2,0.9,0.2,1.4v0l0.1,0.7h0l0.1,0.8c0,0.4,0.1,0.9,0.1,1.5c0,0.5,0,1,0,1.5c0,4.6-0.9,9-2.6,12.9
		c-1.7,4.1-4.2,7.9-7.4,11c-3.1,3.1-6.8,5.6-11,7.3c-4,1.7-8.4,2.6-12.9,2.6c-4.6,0-9-0.9-12.9-2.6c-4.1-1.7-7.9-4.2-11-7.3
		c-3.1-3.1-5.6-6.8-7.4-11c-1.7-4-2.6-8.4-2.6-12.9c0-4.6,0.9-8.9,2.6-12.9c1.7-4.1,4.2-7.9,7.4-11c3.1-3.1,6.8-5.6,11-7.3
		c4-1.7,8.4-2.6,12.9-2.6c2.2,0,4.3,0.2,6.4,0.6h0c2.1,0.4,4.1,1,6,1.7h0l0.2,0.1c2,0.8,3.9,1.8,5.7,2.9c1.8,1.2,3.5,2.5,5.1,4
		l1.3,1.2l1.4-1.1l15-12.1l1.7-1.4l-1.5-1.6c-2.7-2.8-5.6-5.3-8.8-7.5c-3.1-2.2-6.5-4-10-5.6C217.8,348,214.2,346.8,210.4,346
		L210.4,346z M250.1,364.3l-51.1,63l-24.6-35.7l24.2,13.7l0.5,0.3l0.4-0.3L250.1,364.3L250.1,364.3z M549.3,483.4l53.5-127.5v0
		l0.3-0.7l0.6-1.4l1.2-2.8h-3.1h-21.8h-1.3l-0.5,1.2v0l-27,63.6l-0.8,1.8l-0.7-1.9l-25.6-63.6l-0.5-1.3h-1.4h-22.4h-3l1.1,2.8v0
		l0.5,1.3l0.1,0.1v0l37.2,94.3l0.1,0.3l-0.1,0.3l-12.5,31.7l0,0l-1.1,2.8h3h22.3h1.3L549.3,483.4L549.3,483.4z M347,316.2h-20.6h-2
		v2v20.6v2h2H347h2v-2v-20.6v-2H347z"/>
</g>
</svg>
