<?xml version="1.0" encoding="utf-8"?>
<!-- Generator: Adobe Illustrator 18.1.0, SVG Export Plug-In . SVG Version: 6.00 Build 0)  -->
<svg version="1.1" id="Layer_1" xmlns="http://www.w3.org/2000/svg" xmlns:xlink="http://www.w3.org/1999/xlink" x="0px" y="0px"
	 viewBox="258.1 0 203.9 203.9" enable-background="new 258.1 0 203.9 203.9" xml:space="preserve">
<path fill="#5AA7D7" d="M438.1,0H280.7c-13.1,0-22.7,9.5-22.7,22.7v158.6c0,13.1,9.5,22.7,22.7,22.7h158.6
	c13.1,0,22.7-9.5,22.7-22.7V23.8C461.9,9.5,452.4,0,438.1,0z M423.8,70.3c-3.6,4.8-7.2,8.3-11.9,11.9l-1.2,1.2c0,6,0,11.9-1.2,17.9
	c-3.6,15.5-10.7,28.6-22.7,39.3c-7.2,6-15.5,10.7-25,14.3c-6,3.6-13.1,3.6-19.1,4.8c-2.4,0-4.8,0-7.2,0c-3.6,0-6-1.2-8.3-1.2
	c-9.5-1.2-17.9-4.8-26.2-10.7c6,1.2,13.1,0,20.3-1.2c7.2-1.2,11.9-4.8,17.9-8.3c-2.4,0-3.6,0-3.6,0c-1.2,0-1.2,0-1.2,0
	c-6-1.2-10.7-3.6-14.3-8.3c-2.4-2.4-3.6-6-6-8.3v-1.2c2.4,1.2,6,1.2,8.3,0c1.2,0,1.2,0,2.4-1.2c-14.3-3.6-20.3-16.7-20.3-25
	c3.6,1.2,7.2,3.6,10.7,3.6c-1.2-1.2-2.4-2.4-3.6-3.6c-3.6-4.8-6-10.7-7.2-15.5c0-4.8,1.2-9.5,3.6-13.1c0-1.2,0-1.2,1.2,0
	c1.2,0,2.4,1.2,4.8,3.6c6,6,11.9,9.5,19.1,13.1c8.3,3.6,17.9,6,27.4,7.2c1.2,0,1.2,0,1.2-1.2c-1.2-3.6-1.2-6,0-9.5
	c1.2-10.7,9.5-19.1,20.3-21.5c1.2,0,4.8-1.2,7.2-1.2c6,1.2,10.7,3.6,15.5,7.2h1.2c6-1.2,10.7-3.6,15.5-6c0,0,0,0,1.2,0
	c-1.2,6-6,10.7-10.7,13.1c2.4,0,4.8-1.2,7.2-1.2C420.2,71.5,422.6,70.3,423.8,70.3C425,69.2,425,70.3,423.8,70.3z"/>
</svg>
